:FULLY-SPECIFIED
:FORCE-ALL-JOINTS-BE-3DOF
:DEGREES
65
root 9.07853 16.3022 -27.3382 5.32029 -11.7158 0.439498
lfemur -26.706 7.5923 -23.7138
ltibia 32.1898 0 0
lfoot -10.0706 7.75357 0
ltoes -3.87866 0 0
rfemur -4.34037 -0.788901 15.8706
rtibia 57.2139 0 0
rfoot 6.86813 -10.3994 0
rtoes -1.75321 0 0
lowerback -5.09943 0.414001 -2.10585
upperback -2.12696 0.618291 2.55607
thorax 0.61793 0.327186 3.85092
lowerneck -22.5306 -4.13558 -11.7155
upperneck 17.6145 -4.76196 12.7492
head 9.91819 -1.55975 5.77628
lclavicle -3.77233e-15 5.21257e-15 0
lhumerus -38.7942 -6.03112 88.6243
lradius 21.0451 0 0
lwrist -3.47846 0 0
lhand 1.40221 -17.3131 0
lfingers 7.12502 0 0
lthumb 26.9322 10.7826 0
rclavicle -3.77233e-15 5.21257e-15 0
rhumerus -42.9417 13.1955 -90.7956
rradius 38.0879 0 0
rwrist -19.6289 0 0
rhand -29.7105 -25.8664 0
rfingers 7.12502 0 0
rthumb -3.03789 -55.8245 0
66
root 9.09899 16.3281 -27.2193 5.28497 -11.5351 0.492912
lfemur -25.9197 7.34547 -23.8655
ltibia 31.5904 0 0
lfoot -10.1228 7.90785 0
ltoes -3.9895 0 0
rfemur -5.56796 -0.899147 16.0858
rtibia 58.4815 0 0
rfoot 5.33828 -10.5395 0
rtoes -2.04788 0 0
lowerback -5.11351 0.305113 -2.13173
upperback -2.06412 0.473553 2.56867
thorax 0.702207 0.252634 3.87164
lowerneck -22.5569 -4.10331 -11.6145
upperneck 17.6201 -4.72268 12.6412
head 9.91329 -1.54571 5.72495
lclavicle -1.08633e-14 1.25566e-14 0
lhumerus -38.1329 -6.50403 88.6032
lradius 21.2295 0 0
lwrist -3.26546 0 0
lhand 0.898772 -17.3518 0
lfingers 7.12502 0 0
lthumb 26.4507 10.8198 0
rclavicle -1.08633e-14 1.25566e-14 0
rhumerus -42.8377 13.0444 -90.6209
rradius 38.1475 0 0
rwrist -19.7433 0 0
rhand -29.7638 -25.84 0
rfingers 7.12502 0 0
rthumb -3.08933 -55.7974 0
67
root 9.11944 16.354 -27.1003 5.25876 -11.3341 0.578659
lfemur -25.1905 7.09119 -24.0521
ltibia 31.0535 0 0
lfoot -10.2192 8.0319 0
ltoes -4.09995 0 0
rfemur -6.8011 -0.989197 16.2669
rtibia 59.6204 0 0
rfoot 3.87486 -10.6797 0
rtoes -2.61707 0 0
lowerback -5.12157 0.197437 -2.19318
upperback -2.02295 0.332538 2.57571
thorax 0.76082 0.180792 3.90648
lowerneck -22.5665 -4.07274 -11.5427
upperneck 17.6609 -4.68756 12.5612
head 9.92005 -1.53304 5.68962
lclavicle -1.65737e-14 1.66979e-14 0
lhumerus -37.4797 -6.97695 88.584
lradius 21.4248 0 0
lwrist -3.04867 0 0
lhand 0.507587 -17.3638 0
lfingers 7.12502 0 0
lthumb 26.0765 10.8662 0
rclavicle -1.65737e-14 1.66979e-14 0
rhumerus -42.7869 12.923 -90.4558
rradius 38.2235 0 0
rwrist -19.862 0 0
rhand -29.8255 -25.6699 0
rfingers 7.12502 0 0
rthumb -3.14896 -55.6264 0
68
root 9.13452 16.3658 -26.9917 5.26097 -11.0941 0.696995
lfemur -24.5458 6.82448 -24.2748
ltibia 30.5744 0 0
lfoot -10.3375 8.11319 0
ltoes -4.27291 0 0
rfemur -8.06298 -1.06015 16.4284
rtibia 60.623 0 0
rfoot 2.43276 -10.7806 0
rtoes -3.6592 0 0
lowerback -5.1334 0.0844688 -2.2964
upperback -2.01343 0.187052 2.57897
thorax 0.789689 0.107822 3.96033
lowerneck -22.5541 -4.04009 -11.5073
upperneck 17.7467 -4.65451 12.5262
head 9.9414 -1.51953 5.67864
lclavicle -2.1303e-14 1.72464e-14 0
lhumerus -36.8331 -7.4704 88.5726
lradius 21.6299 0 0
lwrist -2.83056 0 0
lhand 0.208819 -17.369 0
lfingers 7.12502 0 0
lthumb 25.7906 10.9043 0
rclavicle -2.1303e-14 1.72464e-14 0
rhumerus -42.8014 12.8354 -90.3045
rradius 38.3358 0 0
rwrist -19.999 0 0
rhand -29.8968 -25.2808 0
rfingers 7.12502 0 0
rthumb -3.21781 -55.2362 0
69
root 9.1496 16.3776 -26.8831 5.29714 -10.8057 0.829679
lfemur -23.9799 6.54041 -24.5136
ltibia 30.1301 0 0
lfoot -10.4497 8.1603 0
ltoes -4.52293 0 0
rfemur -9.35381 -1.11233 16.6045
rtibia 61.4831 0 0
rfoot 0.913883 -10.7988 0
rtoes -5.19907 0 0
lowerback -5.15898 -0.039446 -2.42622
upperback -2.03024 0.0286844 2.58284
thorax 0.800559 0.0291887 4.02896
lowerneck -22.5216 -4.0029 -11.4999
upperneck 17.8693 -4.62142 12.5336
head 9.97414 -1.50386 5.68959
lclavicle -2.5871e-14 1.56083e-14 0
lhumerus -36.18 -7.9933 88.5647
lradius 21.8441 0 0
lwrist -2.61904 0 0
lhand -0.0533419 -17.3819 0
lfingers 7.12502 0 0
lthumb 25.5395 10.9281 0
rclavicle -2.5871e-14 1.56083e-14 0
rhumerus -42.8694 12.7831 -90.1719
rradius 38.5035 0 0
rwrist -20.1727 0 0
rhand -29.9758 -24.7043 0
rfingers 7.12502 0 0
rthumb -3.2941 -54.6586 0
70
root 9.16468 16.3894 -26.7745 5.34456 -10.4897 0.971835
lfemur -23.4569 6.24397 -24.7619
ltibia 29.7208 0 0
lfoot -10.5768 8.191 0
ltoes -4.77501 0 0
rfemur -10.6446 -1.14447 16.7861
rtibia 62.2085 0 0
rfoot -0.649936 -10.7728 0
rtoes -6.99485 0 0
lowerback -5.18854 -0.167589 -2.57114
upperback -2.05957 -0.134426 2.58618
thorax 0.801464 -0.0514453 4.1052
lowerneck -22.4759 -3.96525 -11.509
upperneck 18.0141 -4.59037 12.5612
head 10.0138 -1.48847 5.71142
lclavicle -2.99831e-14 1.26228e-14 0
lhumerus -35.5193 -8.52226 88.5519
lradius 22.069 0 0
lwrist -2.41304 0 0
lhand -0.268058 -17.3813 0
lfingers 7.12502 0 0
lthumb 25.3338 10.9579 0
rclavicle -2.99831e-14 1.26228e-14 0
rhumerus -42.9725 12.7613 -90.0542
rradius 38.7066 0 0
rwrist -20.3703 0 0
rhand -30.0607 -24.0426 0
rfingers 7.12502 0 0
rthumb -3.3761 -53.9956 0
71
root 9.17976 16.4011 -26.6659 5.38049 -10.1671 1.11858
lfemur -22.9408 5.94013 -25.0128
ltibia 29.3465 0 0
lfoot -10.7397 8.22308 0
ltoes -4.95418 0 0
rfemur -11.9065 -1.15528 16.9636
rtibia 62.8073 0 0
rfoot -2.22685 -10.741 0
rtoes -8.8047 0 0
lowerback -5.21233 -0.293243 -2.71965
upperback -2.08762 -0.294139 2.58785
thorax 0.800439 -0.130416 4.18186
lowerneck -22.4244 -3.93124 -11.5235
upperneck 18.1669 -4.56345 12.5872
head 10.0559 -1.47577 5.73313
lclavicle -3.33448e-14 9.12936e-15 0
lhumerus -34.8495 -9.03387 88.526
lradius 22.3057 0 0
lwrist -2.21147 0 0
lhand -0.424492 -17.3458 0
lfingers 7.12502 0 0
lthumb 25.1839 11.014 0
rclavicle -3.33448e-14 9.12936e-15 0
rhumerus -43.0926 12.7654 -89.9474
rradius 38.9248 0 0
rwrist -20.5786 0 0
rhand -30.1497 -23.3977 0
rfingers 7.12502 0 0
rthumb -3.46208 -53.3492 0
72
root 9.19484 16.4129 -26.5573 5.38219 -9.85874 1.26505
lfemur -22.3958 5.63387 -25.2596
ltibia 29.0072 0 0
lfoot -10.9594 8.27434 0
ltoes -4.98545 0 0
rfemur -13.1104 -1.14347 17.1277
rtibia 63.2872 0 0
rfoot -3.78501 -10.7418 0
rtoes -10.3868 0 0
lowerback -5.22059 -0.40969 -2.86022
upperback -2.10057 -0.442314 2.5867
thorax 0.80552 -0.204059 4.25178
lowerneck -22.3742 -3.90497 -11.5321
upperneck 18.3131 -4.54275 12.5893
head 10.0959 -1.46817 5.74368
lclavicle -3.56614e-14 5.96722e-15 0
lhumerus -34.1692 -9.50474 88.4785
lradius 22.5558 0 0
lwrist -2.01324 0 0
lhand -0.511809 -17.2541 0
lfingers 7.12502 0 0
lthumb 25.1001 11.1167 0
rclavicle -3.56614e-14 5.96722e-15 0
rhumerus -43.2115 12.7906 -89.8477
rradius 39.138 0 0
rwrist -20.7849 0 0
rhand -30.2411 -22.8716 0
rfingers 7.12502 0 0
rthumb -3.5503 -52.8217 0
73
root 9.20992 16.4247 -26.4487 5.32693 -9.58545 1.40635
lfemur -21.7861 5.33019 -25.4957
ltibia 28.703 0 0
lfoot -11.2567 8.36254 0
ltoes -4.79385 0 0
rfemur -14.2274 -1.10777 17.2691
rtibia 63.6561 0 0
rfoot -5.29258 -10.8137 0
rtoes -11.4993 0 0
lowerback -5.20356 -0.510212 -2.98135
upperback -2.08464 -0.57081 2.5816
thorax 0.824741 -0.268712 4.30777
lowerneck -22.3325 -3.89054 -11.5234
upperneck 18.4384 -4.53037 12.5457
head 10.1295 -1.46811 5.73205
lclavicle -3.66385e-14 3.97569e-15 0
lhumerus -33.4773 -9.91145 88.4011
lradius 22.8205 0 0
lwrist -1.81726 0 0
lhand -0.51917 -17.0849 0
lfingers 7.12502 0 0
lthumb 25.093 11.2863 0
rclavicle -3.66385e-14 3.97569e-15 0
rhumerus -43.311 12.8322 -89.7511
rradius 39.3261 0 0
rwrist -20.976 0 0
rhand -30.333 -22.5664 0
rfingers 7.12502 0 0
rthumb -3.63904 -52.515 0
74
root 9.22449 16.4214 -26.3356 5.19537 -9.35012 1.54478
lfemur -21.0931 5.0189 -25.7226
ltibia 28.4413 0 0
lfoot -11.6681 8.50363 0
ltoes -4.23797 0 0
rfemur -15.235 -1.05326 17.3882
rtibia 63.9007 0 0
rfoot -6.79568 -10.9699 0
rtoes -12.102 0 0
lowerback -5.14651 -0.59306 -3.08001
upperback -2.03571 -0.67784 2.57142
thorax 0.853974 -0.323428 4.34718
lowerneck -22.2877 -3.88853 -11.4873
upperneck 18.5377 -4.52699 12.4382
head 10.1519 -1.47752 5.68933
lclavicle -3.5691e-14 3.24497e-15 0
lhumerus -32.7623 -10.2226 88.2798
lradius 23.0859 0 0
lwrist -1.65752 0 0
lhand -0.274157 -16.6935 0
lfingers 7.12502 0 0
lthumb 25.328 11.6475 0
rclavicle -3.5691e-14 3.24497e-15 0
rhumerus -43.4028 12.9083 -89.664
rradius 39.5055 0 0
rwrist -21.1665 0 0
rhand -30.4325 -22.5243 0
rfingers 7.12502 0 0
rthumb -3.73514 -52.4712 0
